<svg xmlns="http://www.w3.org/2000/svg" viewBox="0 0 512 512" width="512" height="512">
  <defs>
    <linearGradient id="bg" x1="0" y1="0" x2="1" y2="1">
      <stop offset="0" stop-color="#e30a17"/>
      <stop offset="1" stop-color="#8c060f"/>
    </linearGradient>
  </defs>
  <rect width="512" height="512" rx="112" fill="url(#bg)"/>
  <!-- crescent -->
  <path d="M324 256c0 62-50 112-112 112-18 0-35-4-50-12 40-5 71-39 71-80s-31-75-71-80c15-8 32-12 50-12 62 0 112 50 112 112z" fill="#fff"/>
  <!-- star -->
  <path d="M356 214l13 39 41 1-33 25 12 39-33-24-33 24 12-39-33-25 41-1z" fill="#fff"/>
</svg>
